<mxfile host="app.diagrams.net" modified="2023-12-16T05:54:47.295Z" agent="Mozilla/5.0 (Macintosh; Intel Mac OS X 10_15_7) AppleWebKit/605.1.15 (KHTML, like Gecko) Version/16.6 Safari/605.1.15" etag="7-LDhIXQcu4cQKnWn-Er" version="22.1.11" type="github">
  <diagram id="prtHgNgQTEPvFCAcTncT" name="Page-1">
    <mxGraphModel dx="1079" dy="561" grid="1" gridSize="10" guides="1" tooltips="1" connect="1" arrows="1" fold="1" page="1" pageScale="1" pageWidth="827" pageHeight="1169" math="0" shadow="0">
      <root>
        <mxCell id="0" />
        <mxCell id="1" parent="0" />
        <mxCell id="sg5obiV1q7K0rE9It074-14" value="" style="edgeStyle=orthogonalEdgeStyle;rounded=0;orthogonalLoop=1;jettySize=auto;html=1;" edge="1" parent="1" source="sg5obiV1q7K0rE9It074-12" target="sg5obiV1q7K0rE9It074-13">
          <mxGeometry relative="1" as="geometry" />
        </mxCell>
        <mxCell id="sg5obiV1q7K0rE9It074-17" value="" style="edgeStyle=orthogonalEdgeStyle;rounded=0;orthogonalLoop=1;jettySize=auto;html=1;" edge="1" parent="1" source="sg5obiV1q7K0rE9It074-12" target="sg5obiV1q7K0rE9It074-16">
          <mxGeometry relative="1" as="geometry" />
        </mxCell>
        <mxCell id="sg5obiV1q7K0rE9It074-21" style="edgeStyle=orthogonalEdgeStyle;rounded=0;orthogonalLoop=1;jettySize=auto;html=1;" edge="1" parent="1" source="sg5obiV1q7K0rE9It074-12">
          <mxGeometry relative="1" as="geometry">
            <mxPoint x="438.75" y="340" as="targetPoint" />
          </mxGeometry>
        </mxCell>
        <mxCell id="sg5obiV1q7K0rE9It074-12" value="anagram[ int(t[i] - int(a) ] 가 있는가" style="rhombus;whiteSpace=wrap;html=1;" vertex="1" parent="1">
          <mxGeometry x="340" y="360" width="197.5" height="110" as="geometry" />
        </mxCell>
        <mxCell id="sg5obiV1q7K0rE9It074-23" style="edgeStyle=orthogonalEdgeStyle;rounded=0;orthogonalLoop=1;jettySize=auto;html=1;entryX=0.5;entryY=1;entryDx=0;entryDy=0;" edge="1" parent="1" source="sg5obiV1q7K0rE9It074-3" target="sg5obiV1q7K0rE9It074-10">
          <mxGeometry relative="1" as="geometry" />
        </mxCell>
        <mxCell id="sg5obiV1q7K0rE9It074-24" style="edgeStyle=orthogonalEdgeStyle;rounded=0;orthogonalLoop=1;jettySize=auto;html=1;entryX=0;entryY=0.5;entryDx=0;entryDy=0;" edge="1" parent="1" source="sg5obiV1q7K0rE9It074-3" target="sg5obiV1q7K0rE9It074-11">
          <mxGeometry relative="1" as="geometry" />
        </mxCell>
        <mxCell id="sg5obiV1q7K0rE9It074-3" value="anagram[ int(s[i] ) - int(a) ]++" style="rounded=0;whiteSpace=wrap;html=1;" vertex="1" parent="1">
          <mxGeometry x="110" y="410" width="130" height="60" as="geometry" />
        </mxCell>
        <mxCell id="sg5obiV1q7K0rE9It074-5" value="&lt;div style=&quot;text-align: start; -webkit-text-size-adjust: auto; color: rgb(212, 212, 212); background-color: rgb(40, 40, 40); font-family: Menlo, Monaco, &amp;quot;Courier New&amp;quot;, monospace; font-size: 13px; line-height: 20px;&quot;&gt;isAnagram&lt;/div&gt;" style="swimlane;fontStyle=0;childLayout=stackLayout;horizontal=1;startSize=30;horizontalStack=0;resizeParent=1;resizeParentMax=0;resizeLast=0;collapsible=1;marginBottom=0;whiteSpace=wrap;html=1;" vertex="1" parent="1">
          <mxGeometry x="110" y="180" width="140" height="90" as="geometry" />
        </mxCell>
        <mxCell id="sg5obiV1q7K0rE9It074-6" value="Int length&amp;nbsp;" style="text;strokeColor=none;fillColor=none;align=left;verticalAlign=middle;spacingLeft=4;spacingRight=4;overflow=hidden;points=[[0,0.5],[1,0.5]];portConstraint=eastwest;rotatable=0;whiteSpace=wrap;html=1;" vertex="1" parent="sg5obiV1q7K0rE9It074-5">
          <mxGeometry y="30" width="140" height="30" as="geometry" />
        </mxCell>
        <mxCell id="sg5obiV1q7K0rE9It074-7" value="Int[26] anagram" style="text;strokeColor=none;fillColor=none;align=left;verticalAlign=middle;spacingLeft=4;spacingRight=4;overflow=hidden;points=[[0,0.5],[1,0.5]];portConstraint=eastwest;rotatable=0;whiteSpace=wrap;html=1;" vertex="1" parent="sg5obiV1q7K0rE9It074-5">
          <mxGeometry y="60" width="140" height="30" as="geometry" />
        </mxCell>
        <mxCell id="sg5obiV1q7K0rE9It074-22" style="edgeStyle=orthogonalEdgeStyle;rounded=0;orthogonalLoop=1;jettySize=auto;html=1;entryX=0.5;entryY=0;entryDx=0;entryDy=0;" edge="1" parent="1" source="sg5obiV1q7K0rE9It074-10" target="sg5obiV1q7K0rE9It074-3">
          <mxGeometry relative="1" as="geometry" />
        </mxCell>
        <mxCell id="sg5obiV1q7K0rE9It074-10" value="글자수 길이만큼 반복" style="ellipse;whiteSpace=wrap;html=1;" vertex="1" parent="1">
          <mxGeometry x="120" y="305" width="110" height="70" as="geometry" />
        </mxCell>
        <mxCell id="sg5obiV1q7K0rE9It074-20" style="edgeStyle=orthogonalEdgeStyle;rounded=0;orthogonalLoop=1;jettySize=auto;html=1;entryX=0.5;entryY=0;entryDx=0;entryDy=0;" edge="1" parent="1" source="sg5obiV1q7K0rE9It074-11" target="sg5obiV1q7K0rE9It074-12">
          <mxGeometry relative="1" as="geometry" />
        </mxCell>
        <mxCell id="sg5obiV1q7K0rE9It074-11" value="글자수 길이만큼 반복" style="ellipse;whiteSpace=wrap;html=1;" vertex="1" parent="1">
          <mxGeometry x="383.75" y="270" width="110" height="70" as="geometry" />
        </mxCell>
        <mxCell id="sg5obiV1q7K0rE9It074-13" value="-1" style="whiteSpace=wrap;html=1;" vertex="1" parent="1">
          <mxGeometry x="378.75" y="520" width="120" height="60" as="geometry" />
        </mxCell>
        <mxCell id="sg5obiV1q7K0rE9It074-16" value="Return false" style="whiteSpace=wrap;html=1;" vertex="1" parent="1">
          <mxGeometry x="570" y="385" width="120" height="60" as="geometry" />
        </mxCell>
      </root>
    </mxGraphModel>
  </diagram>
</mxfile>
